<?xml version="1.0" encoding="utf-8"?>
<!-- Generator: Adobe Illustrator 26.4.1, SVG Export Plug-In . SVG Version: 6.00 Build 0)  -->
<svg version="1.1" id="Layer_1" xmlns="http://www.w3.org/2000/svg" xmlns:xlink="http://www.w3.org/1999/xlink" x="0px" y="0px"
	 viewBox="0 0 755.54 414.83" style="enable-background:new 0 0 755.54 414.83;" xml:space="preserve">
<style type="text/css">
	.st0{fill-rule:evenodd;clip-rule:evenodd;fill:#FFFFFF;}
</style>
<g id="SvgjsG1041" transform="matrix(1.3113692087070266,0,0,1.3113692087070266,142.44315395646487,-33.16846043535133)">
	<path class="st0" d="M105.36,311.07l-11.72,20.29h170.92l-11.72-20.29H105.36 M264.56,35.32H93.65l11.72,20.29h147.48L264.56,35.32
		 M117.08,75.91L55.05,183.34l62.03,107.43h124.05l62.03-107.43L241.13,75.91L117.08,75.91 M87.79,341.51L-3.53,183.34L87.78,25.18
		h182.63l91.32,158.17l-91.31,158.17H87.79"/>
	<polyline class="st0" points="355.88,92.03 385.16,41.3 467.17,183.34 385.16,325.39 355.88,274.66 408.6,183.34 355.88,92.03 	"/>
	<polyline class="st0" points="-26.96,325.39 -108.97,183.34 -26.96,41.3 2.33,92.03 -50.39,183.34 2.33,274.66 -26.96,325.39 	"/>
</g>
</svg>
