
        <svg xmlns="http://www.w3.org/2000/svg" xmlns:xlink="http://www.w3.org/1999/xlink" version="1.1" width="3128.0326888878235" height="542.8586008843722" viewBox="0 0 3128.0326888878235 542.8586008843722">
			
			<g transform="scale(6.401634444391182) translate(10, 10)">
				<defs id="SvgjsDefs1039"><linearGradient id="SvgjsLinearGradient1046"><stop id="SvgjsStop1047" stop-color="#616161" offset="0"/><stop id="SvgjsStop1048" stop-color="#e6e7e8" offset="0.5"/><stop id="SvgjsStop1049" stop-color="#616161" offset="1"/></linearGradient></defs><g id="SvgjsG1040" featureKey="nameLeftFeature-0" transform="matrix(1.0891719215941256,0,0,1.0891719215941256,-2.6140114173033204,5.892481742300932)" fill="#fff"><path d="M30.2 24.880000000000003 q0 -3.2 -1.64 -5.8 q-1.56 -2.52 -4.26 -3.96 t-5.86 -1.44 q-3.28 0 -5.98 1.48 t-4.22 4.04 q-1.56 2.68 -1.56 5.96 q0 3.12 1.68 5.76 q1.6 2.48 4.3 3.94 t5.84 1.46 t5.84 -1.52 t4.26 -4.08 q1.6 -2.68 1.6 -5.84 z M34.52 25.119999999999997 q0 4.32 -2.24 7.96 q-2.16 3.48 -5.86 5.54 t-7.98 2.06 q-4.44 0 -8.16 -2.16 q-3.64 -2.08 -5.72 -5.72 q-2.16 -3.72 -2.16 -8.16 q0 -4.28 2.28 -7.88 q2.16 -3.44 5.86 -5.46 t7.94 -2.02 q4.36 0 8.08 2.12 q3.64 2.08 5.76 5.64 q2.2 3.72 2.2 8.08 z M66.8 19.48 l-10.2 12.2 l-10.12 -12.2 l0 20.52 l-4.28 0 l0 -25.64 l-3.48 -4.2 l5.64 0 l12.2 14.64 l12.36 -14.64 l5.64 0 l-3.48 4.2 l0 25.64 l-4.28 0 l0 -20.52 z M81.64 14.36 l-3.48 -4.2 l5.64 0 l19.16 22.8 l0 -22.8 l4.4 0 l0 29.84 l-4.32 0 l-17.12 -20.52 l0 20.52 l-4.28 0 l0 -25.64 z M120.44 40 l-4.28 0 l0 -29.84 l4.28 0 l0 29.84 z"/></g><g id="SvgjsG1041" featureKey="inlineSymbolFeature-0" transform="matrix(1.3113692087070266,0,0,1.3113692087070266,142.44315395646487,-33.16846043535133)" fill="#fff"><path xmlns="http://www.w3.org/2000/svg" d="M38.481,69.952l-1.83,3.17H63.35l-1.83-3.17H38.481 M63.35,26.878H36.651l1.83,3.17h23.038L63.35,26.878   M40.311,33.218L30.622,50l9.689,16.782h19.378L69.378,50l-9.689-16.782H40.311 M35.736,74.707L21.471,50l14.264-24.707h28.529  L78.529,50L64.265,74.707H35.736" style="fill-rule: evenodd; clip-rule: evenodd;"/><polyline xmlns="http://www.w3.org/2000/svg" points="77.614,35.736 82.189,27.811 95,50 82.189,72.189 77.614,64.264 85.85,50 77.614,35.736 " style="fill-rule: evenodd; clip-rule: evenodd;"/><polyline xmlns="http://www.w3.org/2000/svg" points="17.811,72.189 5,50 17.811,27.811 22.386,35.736 14.151,50 22.386,64.264 17.811,72.189 " style="fill-rule: evenodd; clip-rule: evenodd;"/></g><g id="SvgjsG1042" featureKey="nameRightFeature-0" transform="matrix(1.0891719215941256,0,0,1.0891719215941256,270.4010201641972,5.892481742300932)" fill="#fff"><path d="M25.28 22.92 l5.28 0 q4.4 0 4.4 -4.24 q0 -2.2 -1.1 -3.18 t-3.3 -0.98 l-10.96 0 l0 9.6 q1.24 -0.72 2.8 -1 q1.16 -0.2 2.88 -0.2 z M19.6 40 l-4.36 0 l0 -29.84 l15.32 0 q2.64 0 4.6 1.02 t3.04 2.94 t1.08 4.54 t-1.08 4.58 t-3.06 3.02 t-4.58 1.06 l-5.28 0 q-3.44 0 -5.68 1.2 l0 11.48 z M71.48 24.880000000000003 q0 -3.2 -1.64 -5.8 q-1.56 -2.52 -4.26 -3.96 t-5.86 -1.44 q-3.28 0 -5.98 1.48 t-4.22 4.04 q-1.56 2.68 -1.56 5.96 q0 3.12 1.68 5.76 q1.6 2.48 4.3 3.94 t5.84 1.46 t5.84 -1.52 t4.26 -4.08 q1.6 -2.68 1.6 -5.84 z M75.80000000000001 25.119999999999997 q0 4.32 -2.24 7.96 q-2.16 3.48 -5.86 5.54 t-7.98 2.06 q-4.44 0 -8.16 -2.16 q-3.64 -2.08 -5.72 -5.72 q-2.16 -3.72 -2.16 -8.16 q0 -4.28 2.28 -7.88 q2.16 -3.44 5.86 -5.46 t7.94 -2.02 q4.36 0 8.08 2.12 q3.64 2.08 5.76 5.64 q2.2 3.72 2.2 8.08 z M115.44 10.16 l4.6 0 l-9.52 29.84 l-4.72 0 l-5.76 -17.64 l-5.6 17.64 l-4.72 0 l-10.12 -29.84 l4.48 0 l7.92 22.32 l5.6 -17.6 l-1.52 -4.72 l4.48 0 l7.52 22.32 z M130.2 28.04 l0 7.6 l18.4 0 l0 4.36 l-22.76 0 l0 -29.84 l21 0 l0 4.4 l-16.64 0 l0 9.04 q1.24 -0.72 2.76 -0.96 q1.12 -0.2 2.88 -0.2 l6.52 0 l0 4.44 l-6.52 0 q-1.64 0 -2.88 0.2 q-1.52 0.28 -2.76 0.96 z M159.95999999999998 14.52 l0 9.92 q1.24 -0.72 2.76 -0.96 q1.12 -0.2 2.88 -0.2 l5.68 0 q2.36 0 3.68 -1.08 q1.4 -1.16 1.4 -3.48 q0 -2.2 -1.48 -3.28 q-1.28 -0.92 -3.6 -0.92 l-11.32 0 z M172.72 35.28 l-3.64 -7.64 l-3.48 0 q-1.64 0 -2.88 0.2 q-1.52 0.28 -2.76 0.96 l0 11.2 l-4.36 0 l0 -29.84 l15.68 0 q2.76 0 4.88 1.04 t3.28 2.96 q1.24 2.04 1.24 4.8 q0 3.36 -1.8 5.52 t-5.08 3 l2.32 4.76 q1 1.48 1.56 2.08 q0.68 0.76 1.3 1.02 t1.62 0.26 l0.44 0 l0.96 -0.04 l0 4.44 q-2.32 0 -3.44 -0.16 q-1.88 -0.32 -3.2 -1.24 q-1.56 -1.12 -2.64 -3.32 z"/></g>
			</g>
		</svg>
	